<svg xmlns="http://www.w3.org/2000/svg" width="36" height="36" viewBox="0 0 36 36">
  <g id="arrow_back" data-name="arrow back" transform="translate(36) rotate(90)">
    <g id="Raggruppa_80" data-name="Raggruppa 80" transform="translate(36) rotate(90)" opacity="0">
      <path id="Tracciato_29" data-name="Tracciato 29" d="M0,0H36V36H0Z" fill="#fff"/>
    </g>
    <path id="Tracciato_30" data-name="Tracciato 30" d="M26.75,16.856H11.925l4.538-4.983a1.077,1.077,0,0,0-.163-1.612,1.332,1.332,0,0,0-1.762.149l-6.25,6.858a1.342,1.342,0,0,0-.113.171c0,.057,0,.091-.087.149A1.038,1.038,0,0,0,8,18H8a1.038,1.038,0,0,0,.087.411c0,.057,0,.091.087.149a1.342,1.342,0,0,0,.113.171l6.25,6.858A1.3,1.3,0,0,0,15.5,26a1.317,1.317,0,0,0,.8-.263,1.126,1.126,0,0,0,.45-.777,1.1,1.1,0,0,0-.287-.834l-4.538-4.983H26.75a1.148,1.148,0,1,0,0-2.286Z" fill="#231f20"/>
    <path id="Tracciato_31" data-name="Tracciato 31" d="M0,0H36V36H0Z" fill="none"/>
  </g>
</svg>
