<svg xmlns="http://www.w3.org/2000/svg" width="46.24" height="75" viewBox="0 0 46.24 75">
  <g id="Raggruppa_3" data-name="Raggruppa 3" transform="translate(0 0)">
    <path id="Tracciato_8" data-name="Tracciato 8" d="M534.554,3773.64a23.12,23.12,0,1,1-46.221.243c0-.057,0-51.361,0-51.361h17.712v29.463a23.1,23.1,0,0,1,28.508,21.655Z" transform="translate(-488.328 -3722.521)" fill="#ff3385"/>
    <path id="Tracciato_9" data-name="Tracciato 9" d="M539.524,3786.3A16.039,16.039,0,0,0,527,3792.313v-34.661h-3.542v44.712c0,.074,0,.152,0,.227a16.066,16.066,0,1,0,16.062-16.292Zm0,28.593a12.526,12.526,0,1,1,12.527-12.527A12.54,12.54,0,0,1,539.524,3814.892Z" transform="translate(-516.376 -3750.57)" fill="#fff"/>
  </g>
</svg>
