<svg xmlns="http://www.w3.org/2000/svg" width="220.816" height="441.633" viewBox="0 0 220.816 441.633">
  <g id="bortered-vector" transform="translate(0 441.633) rotate(-90)">
    <g id="Rettangolo_9" data-name="Rettangolo 9" fill="none" stroke="#fddd03" stroke-miterlimit="10" stroke-width="6">
      <path d="M0,0H220.816a0,0,0,0,1,0,0V220.816a0,0,0,0,1,0,0H73.569A73.569,73.569,0,0,1,0,147.247V0A0,0,0,0,1,0,0Z" stroke="none"/>
      <path d="M3,3H217.816a0,0,0,0,1,0,0V217.816a0,0,0,0,1,0,0H73.569A70.569,70.569,0,0,1,3,147.247V3A0,0,0,0,1,3,3Z" fill="none"/>
    </g>
    <g id="Tracciato_9" data-name="Tracciato 9" transform="translate(-361.508 -144.492)" fill="none" stroke-miterlimit="10">
      <path d="M803.141,365.308h0c-121.953,0-220.816-98.863-220.816-220.816H803.141Z" stroke="none"/>
      <path d="M 798.140625 360.2503051757812 L 798.140625 149.4920349121094 L 587.38232421875 149.4920349121094 C 587.679443359375 162.464111328125 589.1314086914062 175.3919525146484 591.709716796875 187.9916534423828 C 594.544677734375 201.845947265625 598.7749633789062 215.4734497070312 604.2828979492188 228.4956207275391 C 609.6912231445312 241.2824859619141 616.3856201171875 253.6158294677734 624.1800537109375 265.1530151367188 C 631.9011840820312 276.5819091796875 640.7686767578125 287.3292846679688 650.5360107421875 297.0966186523438 C 660.3033447265625 306.8639831542969 671.0507202148438 315.7314147949219 682.4796142578125 323.4526062011719 C 694.016845703125 331.2469787597656 706.3501586914062 337.9413757324219 719.1370239257812 343.3497314453125 C 732.1591796875 348.8576965332031 745.7866821289062 353.087890625 759.6409912109375 355.9229125976562 C 772.24072265625 358.5011901855469 785.1685180664062 359.9531555175781 798.140625 360.2503051757812 M 803.140625 365.3075866699219 C 681.1876831054688 365.3075866699219 582.3250122070312 266.4449768066406 582.3250122070312 144.4920349121094 L 803.140625 144.4920349121094 L 803.140625 365.3075866699219 Z" stroke="none" fill="#ff3485"/>
    </g>
  </g>
</svg>
