<svg xmlns="http://www.w3.org/2000/svg" width="401.267" height="342.084" viewBox="0 0 401.267 342.084">
  <g id="gray-arrow-1" transform="translate(-2282.59 551.54) rotate(-60)" opacity="0.4">
    <path id="Tracciato_24" data-name="Tracciato 24" d="M5461.216,2143.622a10,10,0,0,1-6.605-17.511c79-69.427,119.449-140.026,120.231-209.836.926-82.606-55.211-135.183-55.778-135.7a10,10,0,0,1,13.536-14.723c2.584,2.375,63.265,59.227,62.24,150.651-.849,75.724-43.586,151.3-127.026,224.635A9.963,9.963,0,0,1,5461.216,2143.622Z" transform="translate(-3940)" fill="#c1c1c1"/>
    <path id="Tracciato_25" data-name="Tracciato 25" d="M5416.317,2204.665a10,10,0,0,1-9.825-11.867l14.683-77.279a10,10,0,1,1,19.648,3.733l-11.717,61.672,58.549-15.538a10,10,0,1,1,5.13,19.331l-73.9,19.613A9.993,9.993,0,0,1,5416.317,2204.665Z" transform="translate(-3914.331 -39.382)" fill="#c1c1c1"/>
  </g>
</svg>
