<svg xmlns="http://www.w3.org/2000/svg" xmlns:xlink="http://www.w3.org/1999/xlink" width="308.056" height="313.724" viewBox="0 0 308.056 313.724">
  <defs>
    <clipPath id="clip-path">
      <rect id="Rettangolo_14" data-name="Rettangolo 14" width="313.724" height="308.056" fill="#ff3485"/>
    </clipPath>
  </defs>
  <g id="Raggruppa_20" data-name="Raggruppa 20" transform="translate(0 313.724) rotate(-90)">
    <g id="Raggruppa_19" data-name="Raggruppa 19" clip-path="url(#clip-path)">
      <path id="Tracciato_17" data-name="Tracciato 17" d="M164.9,308.039c-13.942-.142-35.969-1.414-57.975-3.112-6.66-.514-13.332-.956-19.973.323a26.508,26.508,0,0,1-11.236-.538c-7.613-1.82-15.224-3.663-22.782-5.7a50.682,50.682,0,0,1-12.773-5.471C27.877,286.222,22.927,275.37,26.8,261.753a22.379,22.379,0,0,0-.823-15.024c-9.03-23.921-11.451-48.721-6.547-73.683,5.451-27.754,19.783-50.612,42.423-67.9,13.824-10.557,29.63-14.18,46.776-12.714,8.718.744,17.171,2.813,25.59,5.058,2.524.674,5.037,1.382,7.558,2.066a1.931,1.931,0,0,0,2.636-1.411,3.089,3.089,0,0,0,.162-.854c.129-5.485,3.356-11.32.983-16.233-2.206-4.568-8.183-6.125-12.671-8.7A335.487,335.487,0,0,1,94.818,46.306c-3.9-3.018-7.963-5.83-11.943-8.747a3.925,3.925,0,0,0-4.81-.236c-20.035,12.12-37.384,26.714-45.1,49.886-1.5,4.51-4.937,7.038-8.035,9.979a4.844,4.844,0,0,1-6.439.239,21.948,21.948,0,0,1-3.774-3.553A60.541,60.541,0,0,1,.249,60.859C-1.177,49.448,3.685,39.735,10.685,31.3,23.873,15.4,48.252,8.954,67.73,15.743a93.163,93.163,0,0,1,10.435,4.365,8.674,8.674,0,0,0,8.223.041,132.464,132.464,0,0,1,28.842-9.629c16.62-3.579,33.3-4.951,50.065-.994A71.662,71.662,0,0,1,176.1,12.806c3.61,1.486,6.372,1.128,9.517-1.366A51.871,51.871,0,0,1,218.782,0c30.148.237,55.565,10.849,73.7,35.919,14.448,19.969,20.685,42.6,21.213,67.015a136.076,136.076,0,0,1-1.831,24.293,53.621,53.621,0,0,1-8.109,20.965,129.7,129.7,0,0,1-19.068,22.57,19.362,19.362,0,0,0-3.437,22.272c6.667,12.287,12.406,24.924,15.84,38.542a69.211,69.211,0,0,1-1.018,36.972c-3.781,12.927-11.992,22.333-23.609,28.926a72.469,72.469,0,0,1-24.647,8.248,151.181,151.181,0,0,1-24.255,2.332c-16.842-.056-33.683-.018-58.663-.018m-13.948-24.956a141.65,141.65,0,0,0,30.567-3.593c21.885-5.385,41.14-15.351,56.642-32.174,13.57-14.727,21.46-32.2,26.3-51.316a18.1,18.1,0,0,0,.53-4.3c.019-3.666-2.207-5.235-5.623-3.7a103.505,103.505,0,0,1-30.995,8.224c-6.181.7-9.583,3.1-12.349,8.8-5.243,10.811-14.4,17.531-26.427,19.055-14.494,1.836-26.934-2.582-36.387-14.174a47.863,47.863,0,0,0-3.372-3.943c-.8-.787-1.631-.116-2.054.623a8.051,8.051,0,0,0-.831,2.446c-4.666,23.71-10.9,46.891-22.952,68.113-.957,1.685-.3,2.774,1.409,3.155,8.532,1.9,17.219,2.37,25.545,2.776M281.173,155.2c9.127-6.743,16.663-19.008,18.391-30.237a124.671,124.671,0,0,0,1.417-12.976c1.077-22.53-2.983-43.838-14.935-63.36-14.816-24.2-37.093-35.007-64.642-36.153a41.613,41.613,0,0,0-24.139,6.1c-2.112,1.319-2.26,2.618-.467,3.991.69.527,1.441.973,2.172,1.444,13.064,8.433,23.925,19.231,33.7,31.229C249.5,75.9,261.987,99.058,272.056,123.6a109.58,109.58,0,0,1,7.507,26.733c.233,1.7.312,3.5,1.61,4.864m-12.844,6.018c-.147-8.38-2.449-19.6-6.332-29.781a271.285,271.285,0,0,0-29.248-56.177,181.3,181.3,0,0,0-22.868-27.3,106.939,106.939,0,0,0-22.113-16.775c-3.451-1.965-4.1-1.884-6.593,1.131a94.575,94.575,0,0,0-19.453,37.5c-1.107,4.4-1.255,4.695,2.785,6.982,11.712,6.63,21.8,15.3,31.615,24.367,2.763,2.555,5.784,4.832,8.719,7.2,15.6,12.575,30.148,26.308,44.339,40.415,4.51,4.485,8.4,9.591,12.687,14.306,1.616,1.777,2.4,5.649,5.467,4.392,2.056-.842.75-4.2,1-6.262M62.965,214.606a16.537,16.537,0,0,0,3-.842c18.208-11.656,38.45-17.136,59.652-19.74,3.16-.389,6.308-.882,9.444-1.424a2.559,2.559,0,0,0,2.3-2.257c.416-4.564,2.3-8.982,1.037-13.722-2.469-9.223-4.45-18.579-7.719-27.577A50.825,50.825,0,0,0,124,135.94c-3.9-5.271-9.076-7.011-15.289-5.515a34.66,34.66,0,0,0-7.232,2.857c-6.049,3.023-10.954,7.531-15.477,12.465-17.764,19.375-22.309,43.11-23.042,68.859M29.807,200.418c-.3,10.046,1.784,22.87,5.531,35.449,1.062,3.564,2.1,3.8,4.4,1.229,2.322-2.588,4.419-5.432,7.02-7.7,3.171-2.766,3.993-5.972,3.8-10a141.981,141.981,0,0,1,3.51-37.115c4.437-20.42,13.954-37.972,29.8-51.837A54.93,54.93,0,0,1,103.181,119c12.094-3.9,22.436-.9,30.317,8.912,1.086,1.351,1.914,2.906,2.977,4.278,1.927,2.488,2.333,5.907,4.927,7.974,2.39-2.918,1.1-6.4,1.4-9.622.4-4.325.561-8.683.608-13.027.04-3.685-.476-4.474-4.16-5.561-10-2.954-20.027-5.778-30.463-6.913-16.434-1.785-31.1,2.153-43.53,13.233C41.675,139.3,29.377,165.451,29.807,200.418M274.2,207.75c-5.322,16.3-12.183,30.544-22.436,42.909a118.166,118.166,0,0,1-36.994,29.826c-14.235,7.367-29.487,11.479-46.639,14.36,2.378.344,3.23.541,4.087.58a569.556,569.556,0,0,0,58.281-.245c10.685-.635,21.365-2.029,31.4-6.354,14-6.033,21.935-16.547,23.957-31.653a64.146,64.146,0,0,0-3.513-31.654c-2.126-5.639-3.9-11.449-8.138-17.769M65.014,234.1c.018.068.352,1.475.749,2.863A48.457,48.457,0,0,0,78.47,258.441a61.134,61.134,0,0,0,18.477,12.865c14.392,6.3,12,7.385,19.387-6.224,6.254-11.527,10.134-24.039,13.427-36.693,1.677-6.447,3.023-12.984,4.348-19.514.446-2.195-.691-3.19-2.991-2.964A150.41,150.41,0,0,0,84.1,217.882a86.862,86.862,0,0,0-17.026,10.455c-1.446,1.1-2.532,2.4-2.061,5.759m97.486-43.22q14.3-1.285,28.6-2.574c4.623-.42,9.251-.806,13.859-1.358,2.54-.306,3.536-1.671,3.26-4.158a43.767,43.767,0,0,0-3.244-12.6c-8.525-19.692-21.588-35.61-39.7-47.247a38.455,38.455,0,0,0-6.165-3.184c-1.636-.672-2.838.276-3.142,1.919a34.283,34.283,0,0,0-.459,5.2c-.46,15.09-1.6,30.137-3.309,45.128-.658,5.748.807,10.889,2.93,16.033a3.958,3.958,0,0,0,3.883,2.851c1.159.01,2.32,0,3.485,0m-5.375-92.824a15.144,15.144,0,0,1-.01,1.831c-.422,3.254.554,5.657,3.9,6.745a16.743,16.743,0,0,1,2.376,1.078c24.816,12.709,41.933,32.5,53.089,57.763a69.322,69.322,0,0,1,4.338,15.912,3.038,3.038,0,0,0,3.7,2.749c9.543-1.107,18.9-3,27.786-6.791,2.23-.952,2.634-2.2,1.457-4.066a50.953,50.953,0,0,0-3.032-4.251c-5.757-7.329-12.567-13.648-19.17-20.183-17.773-17.587-37.611-32.817-56.225-49.442a74.1,74.1,0,0,0-8.361-6.238c-2.381-1.586-5.168-4.733-7.457-3.747-3.133,1.347-1.752,5.682-2.389,8.64M170.839,24.2a8,8,0,0,0-2.043-1.373c-3.047-.89-6.1-1.8-9.213-2.4-21.482-4.117-41.934.409-62.033,7.609-3,1.073-3.166,2.212-.838,4.034C111.3,43.475,126.156,54.481,142.4,63.492c7.515,4.169,6.523,4.518,9.038-3.093a104.165,104.165,0,0,1,11.556-24.183c2.046-3.15,4.289-6.173,6.4-9.278a30.563,30.563,0,0,0,1.444-2.739M21.663,82.294a19.5,19.5,0,0,0,1.652-2.639c5.2-13.209,13.707-24.078,23.832-33.815a131.547,131.547,0,0,1,17-13.486c1.1-.756,2.956-1.295,2.518-2.929-.39-1.448-2.207-1.661-3.58-2.117-14.145-4.692-33.161.487-42.826,11.839-4.208,4.942-7.485,10.7-7.544,17.19-.086,9.417,3.051,18.058,8.954,25.956M52.884,241.341c-3.583,2.949-5.977,6.89-8.4,10.8a5.57,5.57,0,0,0-.15,5.776c5.3,10.365,11.459,20.122,20.431,27.745,8.31,7.062,18.367,5.334,28.074,5.154a3.922,3.922,0,0,0,1.6-.631c1.508-.8,3.623-1.36,3.923-3.077.4-2.271-2.19-2.226-3.537-2.992-2.757-1.569-5.749-2.725-8.5-4.3-14.215-8.157-25.243-19.183-31.02-34.871-.481-1.3-.862-2.73-2.424-3.6M164.8,203.573a19.756,19.756,0,0,0,12.691,7.684c9.728,1.98,18.45.175,24.972-8.041a3.025,3.025,0,0,0,.685-2.311c-.142-.471-1.363-.928-2.062-.873q-13.414,1.063-26.81,2.308c-2.855.264-5.693.733-9.476,1.233" transform="translate(0 0)" fill="#ff3485"/>
    </g>
  </g>
</svg>
