<svg xmlns="http://www.w3.org/2000/svg" width="43.601" height="70.719" viewBox="0 0 43.601 70.719">
  <g id="Raggruppa_79" data-name="Raggruppa 79" transform="translate(0)">
    <path id="Tracciato_8" data-name="Tracciato 8" d="M531.916,3770.722a21.8,21.8,0,1,1-43.583.229c0-.054,0-48.43,0-48.43h16.7V3750.3a21.781,21.781,0,0,1,26.882,20.419Z" transform="translate(-488.328 -3722.521)" fill="#ff3385"/>
    <path id="Tracciato_9" data-name="Tracciato 9" d="M538.608,3784.664a15.124,15.124,0,0,0-11.809,5.671v-32.683h-3.339v42.16c0,.07,0,.144,0,.214a15.149,15.149,0,1,0,15.145-15.363Zm0,26.961a11.811,11.811,0,1,1,11.812-11.813A11.824,11.824,0,0,1,538.608,3811.625Z" transform="translate(-516.781 -3750.974)" fill="#fff"/>
  </g>
</svg>
